<?xml version="1.0" encoding="UTF-8" standalone="no"?>
<!DOCTYPE svg PUBLIC "-//W3C//DTD SVG 1.1//EN" "http://www.w3.org/Graphics/SVG/1.1/DTD/svg11.dtd">
<svg width="100%" height="100%" viewBox="0 0 256 256" version="1.1" xmlns="http://www.w3.org/2000/svg" xmlns:xlink="http://www.w3.org/1999/xlink" xml:space="preserve" xmlns:serif="http://www.serif.com/" style="fill-rule:evenodd;clip-rule:evenodd;stroke-linejoin:round;stroke-miterlimit:2;">
    <path d="M161.339,3.577C183.565,9.533 246.467,72.435 252.423,94.661C258.378,116.887 235.354,202.813 219.084,219.084C202.813,235.354 116.887,258.378 94.661,252.423C72.435,246.467 9.533,183.565 3.577,161.339C-2.378,139.113 20.646,53.187 36.916,36.916C53.187,20.646 139.113,-2.378 161.339,3.577ZM204.333,51.667C217.968,65.303 237.264,137.313 232.273,155.94C227.282,174.566 174.566,227.282 155.94,232.273C137.313,237.264 65.303,217.968 51.667,204.333C38.032,190.697 18.736,118.687 23.727,100.06C28.718,81.434 81.434,28.718 100.06,23.727C118.687,18.736 190.697,38.032 204.333,51.667Z" style="fill:white;"/>
    <path d="M201.01,54.99C214.052,68.032 232.508,136.908 227.734,154.724C222.96,172.539 172.539,222.96 154.724,227.734C136.908,232.508 68.032,214.052 54.99,201.01C41.948,187.968 23.492,119.092 28.266,101.276C33.04,83.461 83.461,33.04 101.276,28.266C119.092,23.492 187.968,41.948 201.01,54.99ZM143.594,201.083C143.51,201.13 130.491,192.722 124.934,191.455C121.653,190.707 102.223,186.581 79.613,200.455C80.351,187.218 94.889,177.113 94.746,177.034C94.28,176.778 71.958,176.063 54.243,186.492C56.039,172.476 72.251,160.735 72.259,160.732C55.302,149.899 51.631,133.635 51.546,133.484C51.416,133.253 69.638,138.908 69.676,138.87C69.704,138.843 59.194,127.838 57.283,99.056C57.311,98.98 75.468,106.669 75.483,106.647C75.498,106.624 75.665,105.728 75.853,104.655C76.223,102.544 77.511,97.345 78.357,94.546C81.684,83.545 86.108,75.349 92.547,68.262C97.07,63.283 104.175,58.321 110.879,55.457C112.813,54.631 112.545,54.543 114.693,56.706C118.769,60.81 122.054,66.455 123.998,72.701C126.859,81.888 127.959,90.467 127.984,103.78C127.99,106.847 128.013,109.337 128.036,109.315C128.058,109.292 129.122,100.643 131.906,99.677C137.111,101.69 143.923,107.146 149.381,113.386C155.828,120.758 160.534,128.83 161.451,134.092C161.801,136.099 161.724,139.359 161.302,140.453C182.619,149.484 201.04,154.425 201.04,154.425C203.833,186.074 158.859,186.631 158.859,186.631C158.859,186.631 143.678,201.035 143.594,201.083ZM143.822,152.426C145.531,152.268 148.437,151.772 148.598,151.612C148.717,151.492 148.068,148.701 147.55,147.112C147.04,145.546 145.733,142.759 144.845,141.342C143.415,139.064 141.33,136.745 139.723,135.648C136.126,133.194 130.368,132.409 125.421,133.698C124.774,133.867 124.186,134.062 124.114,134.132C124.041,134.204 124.228,135.036 124.543,136.035C126.661,142.761 129.383,146.924 133.808,150.205C136.59,152.268 139.224,152.852 143.822,152.426ZM94.742,108.931C95.47,104.888 96.922,101.451 99.184,98.422C100.279,96.955 102.677,94.593 104.107,93.572C105.231,92.77 105.554,92.731 108,93.1C109.942,93.393 111.44,93.787 113.502,94.549C115.205,95.177 119.466,97.204 121,98.114C121.443,98.378 121.837,98.561 121.877,98.522C122.114,98.284 119.962,89.25 118.689,85.139C116.596,78.384 113.51,71.813 110.359,67.403L109.789,66.607L107.842,68.561C103.505,72.914 99.815,77.739 96.817,82.979C94.564,86.916 92.972,91.642 92.108,96.961C91.742,99.213 91.744,105.373 92.113,107.731C92.438,109.813 92.929,112.045 93.68,114.85L94.24,116.943L94.336,113.799C94.402,111.656 94.531,110.107 94.742,108.931ZM148.029,107.488C145.879,105.613 139.833,100.812 131.516,96.226C130.03,86.396 128.056,77.228 127.836,76.507C127.78,76.325 128.456,75.808 130.504,74.466C138.327,69.337 147.854,64.765 156.049,62.206C157.287,61.82 158.387,61.475 158.494,61.441C158.645,61.392 158.67,61.572 158.604,62.239C158.558,62.712 158.381,64.517 158.212,66.25C157.229,76.325 155.365,86.179 152.393,97.004C151.513,100.211 149.145,108.159 149.037,108.267C149.008,108.296 148.554,107.946 148.029,107.488Z" style="fill:white;"/>
</svg>
