<?xml version="1.0" encoding="UTF-8" standalone="no"?>
<!DOCTYPE svg PUBLIC "-//W3C//DTD SVG 1.1//EN" "http://www.w3.org/Graphics/SVG/1.1/DTD/svg11.dtd">
<svg width="100%" height="100%" viewBox="0 0 256 256" version="1.1" xmlns="http://www.w3.org/2000/svg" xmlns:xlink="http://www.w3.org/1999/xlink" xml:space="preserve" xmlns:serif="http://www.serif.com/" style="fill-rule:evenodd;clip-rule:evenodd;stroke-linejoin:round;stroke-miterlimit:2;">
    <path d="M128,192.06C123.585,192.06 120,195.644 120,200.06L120,235.974C120,240.389 123.585,243.974 128,243.974C132.415,243.974 136,240.389 136,235.974L136,200.06C136,195.644 132.415,192.06 128,192.06ZM173.297,173.297C170.175,176.419 170.175,181.489 173.297,184.611L198.692,210.006C201.814,213.128 206.884,213.128 210.006,210.006C213.128,206.884 213.128,201.814 210.006,198.692L184.611,173.297C181.489,170.175 176.419,170.175 173.297,173.297ZM82.703,173.297C79.581,170.175 74.511,170.175 71.389,173.297L45.994,198.692C42.872,201.814 42.872,206.884 45.994,210.006C49.116,213.128 54.186,213.128 57.308,210.006L82.703,184.611C85.825,181.489 85.825,176.419 82.703,173.297ZM128,73.475C158.093,73.475 182.525,97.907 182.525,128C182.525,158.093 158.093,182.525 128,182.525C97.907,182.525 73.475,158.093 73.475,128C73.475,97.907 97.907,73.475 128,73.475ZM63.94,128C63.94,123.585 60.356,120 55.94,120L20.026,120C15.611,120 12.026,123.585 12.026,128C12.026,132.415 15.611,136 20.026,136L55.94,136C60.356,136 63.94,132.415 63.94,128ZM243.974,128C243.974,123.585 240.389,120 235.974,120L200.06,120C195.644,120 192.06,123.585 192.06,128C192.06,132.415 195.644,136 200.06,136L235.974,136C240.389,136 243.974,132.415 243.974,128ZM45.994,45.994C42.872,49.116 42.872,54.186 45.994,57.308L71.389,82.703C74.511,85.825 79.581,85.825 82.703,82.703C85.825,79.581 85.825,74.511 82.703,71.389L57.308,45.994C54.186,42.872 49.116,42.872 45.994,45.994ZM210.006,45.994C206.884,42.872 201.814,42.872 198.692,45.994L173.297,71.389C170.175,74.511 170.175,79.581 173.297,82.703C176.419,85.825 181.489,85.825 184.611,82.703L210.006,57.308C213.128,54.186 213.128,49.116 210.006,45.994ZM128,12.026C123.585,12.026 120,15.611 120,20.026L120,55.94C120,60.356 123.585,63.94 128,63.94C132.415,63.94 136,60.356 136,55.94L136,20.026C136,15.611 132.415,12.026 128,12.026Z"/>
</svg>
